<svg width="61" height="58" viewBox="0 0 61 58" fill="none" xmlns="http://www.w3.org/2000/svg">
<path d="M2 56H59" stroke="black" stroke-width="4" stroke-linecap="round" stroke-linejoin="round"/>
<path d="M16.25 33.2631H10.55C8.976 33.2631 7.70001 34.5356 7.70001 36.1052V53.1579C7.70001 54.7275 8.976 56 10.55 56H16.25C17.824 56 19.1 54.7275 19.1 53.1579V36.1052C19.1 34.5356 17.824 33.2631 16.25 33.2631Z" stroke="black" stroke-width="4" stroke-linejoin="round"/>
<path d="M13.4 44.6316H14.825" stroke="black" stroke-width="4" stroke-linecap="square" stroke-linejoin="round"/>
<path d="M50.45 2H21.95C20.376 2 19.1 3.27245 19.1 4.84211V53.1579C19.1 54.7275 20.376 56 21.95 56H50.45C52.024 56 53.3 54.7275 53.3 53.1579V4.84211C53.3 3.27245 52.024 2 50.45 2Z" stroke="black" stroke-width="4" stroke-linejoin="round"/>
<path d="M27.65 10.5263H33.35V16.2105H27.65V10.5263ZM39.05 10.5263H44.75V16.2105H39.05V10.5263ZM27.65 20.4737H33.35V26.1579H27.65V20.4737ZM39.05 20.4737H44.75V26.1579H39.05V20.4737ZM39.05 30.421H44.75V36.1053H39.05V30.421ZM39.05 40.3684H44.75V46.0526H39.05V40.3684Z" fill="black"/>
</svg>
